<svg width="31" height="35" viewBox="0 0 31 35" fill="none" xmlns="http://www.w3.org/2000/svg">
<path d="M20.6549 5.7522C21.3354 4.99954 21.8542 4.12529 22.1816 3.17966C22.509 2.23403 22.6385 1.23564 22.5628 0.241821C20.4738 0.403655 18.5346 1.34659 17.1631 2.86746C16.5063 3.59637 16.0086 4.44436 15.6995 5.36119C15.3903 6.27803 15.276 7.24509 15.3632 8.2051C16.3822 8.21324 17.3895 7.99625 18.3071 7.5709C19.2247 7.14555 20.0281 6.52326 20.6549 5.7522ZM25.1906 18.604C25.2027 17.2804 25.566 15.9815 26.2462 14.83C26.9264 13.6785 27.9011 12.7123 29.0784 12.0226C28.3354 10.9952 27.3533 10.1481 26.2098 9.54844C25.0663 8.94876 23.793 8.61302 22.4908 8.56785C19.683 8.29147 17.0911 10.1398 15.5972 10.1398C14.1033 10.1398 11.9974 8.6024 9.65759 8.63694C8.12792 8.6853 6.63742 9.11333 5.33147 9.87926C4.02552 10.6452 2.94871 11.7229 2.20606 13.0072C-0.961742 18.2931 1.39611 26.1527 4.56391 30.4193C6.00382 32.5095 7.80371 34.876 10.1796 34.7896C12.5554 34.7033 13.3294 33.3732 16.0832 33.3732C18.837 33.3732 19.683 34.7896 22.0228 34.7378C24.3627 34.686 26.0186 32.5959 27.5305 30.5057C28.6015 28.9883 29.4381 27.3301 30.0143 25.5827C28.5879 24.9988 27.3709 24.0268 26.5136 22.7865C25.6564 21.5463 25.1964 20.0923 25.1906 18.604Z" fill="black"/>
</svg>
