<svg width="30" height="29" viewBox="0 0 30 29" fill="none" xmlns="http://www.w3.org/2000/svg">
<g clip-path="url(#clip0_438_12284)">
<path d="M28.4654 11.8928L16.7215 11.8922C16.2029 11.8922 15.7826 12.3125 15.7826 12.8311V16.5827C15.7826 17.1012 16.2029 17.5216 16.7215 17.5216H23.3349C22.6107 19.401 21.2591 20.9749 19.5346 21.975L22.3546 26.8566C26.8781 24.2405 29.5525 19.6501 29.5525 14.5116C29.5525 13.7799 29.4986 13.2569 29.3907 12.668C29.3087 12.2205 28.9203 11.8928 28.4654 11.8928Z" fill="#167EE6"/>
<path d="M15.157 23.1583C11.9205 23.1583 9.09508 21.3899 7.57761 18.7732L2.69617 21.5868C5.1803 25.8922 9.83388 28.7914 15.157 28.7914C17.7683 28.7914 20.2323 28.0883 22.3549 26.8631V26.8564L19.535 21.9747C18.2451 22.7228 16.7524 23.1583 15.157 23.1583Z" fill="#12B347"/>
<path d="M22.3547 26.8637V26.857L19.5348 21.9753C18.2449 22.7234 16.7523 23.1589 15.1568 23.1589V28.7921C17.7681 28.7921 20.2322 28.089 22.3547 26.8637Z" fill="#0F993E"/>
<path d="M6.3941 14.3956C6.3941 12.8003 6.82947 11.3078 7.57743 10.0179L2.69599 7.20435C1.46396 9.32026 0.760925 11.7776 0.760925 14.3956C0.760925 17.0136 1.46396 19.4709 2.69599 21.5868L7.57743 18.7732C6.82947 17.4834 6.3941 15.9909 6.3941 14.3956Z" fill="#FFD500"/>
<path d="M15.157 5.63318C17.2675 5.63318 19.2061 6.38311 20.7203 7.63055C21.0939 7.93826 21.6368 7.91605 21.979 7.57387L24.6372 4.91569C25.0254 4.52745 24.9978 3.89195 24.583 3.53217C22.046 1.33123 18.7451 0 15.157 0C9.83388 0 5.1803 2.89925 2.69617 7.20463L7.57761 10.0182C9.09508 7.40151 11.9205 5.63318 15.157 5.63318Z" fill="#FF4B26"/>
<path d="M20.7201 7.63055C21.0937 7.93826 21.6367 7.91605 21.9788 7.57387L24.637 4.91569C25.0252 4.52745 24.9975 3.89195 24.5829 3.53217C22.0459 1.33117 18.7449 0 15.1568 0V5.63318C17.2673 5.63318 19.2059 6.38311 20.7201 7.63055Z" fill="#D93F21"/>
</g>
<defs>
<clipPath id="clip0_438_12284">
<rect width="28.7918" height="28.7918" fill="white" transform="translate(0.760925)"/>
</clipPath>
</defs>
</svg>
