<svg width="29" height="29" viewBox="0 0 29 29" fill="none" xmlns="http://www.w3.org/2000/svg">
<rect x="0.791748" y="0.411255" width="27.9692" height="27.9692" rx="4.11311" fill="#55ACEE"/>
<path fill-rule="evenodd" clip-rule="evenodd" d="M14.3575 11.7782L14.3869 12.2621L13.8978 12.2029C12.1174 11.9757 10.5621 11.2054 9.24156 9.91175L8.59596 9.26985L8.42966 9.74387C8.07752 10.8005 8.3025 11.9165 9.03614 12.667C9.42742 13.0818 9.33938 13.141 8.66443 12.8941C8.42966 12.8151 8.22424 12.7559 8.20468 12.7855C8.13621 12.8546 8.37097 13.7533 8.55683 14.1088C8.81116 14.6026 9.3296 15.0865 9.89695 15.3729L10.3763 15.6L9.80892 15.6099C9.26113 15.6099 9.24156 15.6198 9.30026 15.8272C9.49589 16.4691 10.2687 17.1505 11.1295 17.4467L11.736 17.6541L11.2077 17.9701C10.4252 18.4244 9.50568 18.6812 8.58618 18.7009C8.14599 18.7108 7.78406 18.7503 7.78406 18.7799C7.78406 18.8787 8.97745 19.4317 9.67197 19.649C11.7555 20.2909 14.2303 20.0144 16.0889 18.9182C17.4095 18.138 18.73 16.5876 19.3463 15.0865C19.6789 14.2866 20.0115 12.825 20.0115 12.1239C20.0115 11.6696 20.0408 11.6103 20.5886 11.0672C20.9114 10.7512 21.2146 10.4055 21.2733 10.3068C21.3711 10.1191 21.3614 10.1191 20.8625 10.287C20.031 10.5833 19.9136 10.5438 20.3245 10.0994C20.6277 9.78337 20.9897 9.2106 20.9897 9.04271C20.9897 9.01309 20.8429 9.06246 20.6766 9.15134C20.5006 9.2501 20.1093 9.39823 19.8158 9.48711L19.2876 9.65499L18.8083 9.3291C18.5442 9.15134 18.1725 8.95383 17.9768 8.89458C17.4779 8.75632 16.715 8.77608 16.265 8.93408C15.0422 9.37848 14.2695 10.524 14.3575 11.7782Z" fill="white"/>
</svg>
